# xmcd
#
# Track frame offsets:
#	150
#	16197
#	34656
#	52338
#	68924
#	85602
#	104543
#	119946
#	136067
#	152396
#	168074
#	185723
#	199083
#	212775
#	229523
#	245660
#	263435
#	279936
#
# Disc length: 3925 seconds
#
# Revision: 2
# Processed by: cddbd v1.5.2PL0 Copyright (c) Steve Scherf et al.
# Submitted via: audiograbber 1.83.01
#
DISCID=f50f5312
DTITLE=Various Artist - CDX 285
DYEAR=2002
DGENRE=Country
TTITLE0=The Derailers - Bar Exam
TTITLE1=Alan Jackson - Drive (for daddy Gene)
TTITLE2=Trace Adkins - Help me understand
TTITLE3=George Strait - Living and living well
TTITLE4=Clint Black - Money or love
TTITLE5=Lonestar - Not a day goes by
TTITLE6=Mark Chesnutt - She Was
TTITLE7=Garth Brooks and Trisha Yearwood - Squeeze me in
TTITLE8=Elbert West - (this one's gonna) leave a mark
TTITLE9=Shannon Brown - Untangle my heart
TTITLE10=Jeff Carson - Until we fall back in love again
TTITLE11=Tony Stampley - Waste of good whiskey
TTITLE12=Wayne Warner - 10,000 tears ago
TTITLE13=Joseph James - One Track Mind
TTITLE14=Teresa Farris - Take it on the run
TTITLE15=Brooklyn Cowboys - The other man in black (the ballad of dale earnhard
TTITLE15=t)
TTITLE16=Brad Martin - Before i knew better
TTITLE17=Jeffrey Steele - I can give you love like that
EXTD=
EXTT0=
EXTT1=
EXTT2=
EXTT3=
EXTT4=
EXTT5=
EXTT6=
EXTT7=
EXTT8=
EXTT9=
EXTT10=
EXTT11=
EXTT12=
EXTT13=
EXTT14=
EXTT15=
EXTT16=
EXTT17=
PLAYORDER=
